<svg xmlns="http://www.w3.org/2000/svg" xmlns:xlink="http://www.w3.org/1999/xlink" viewBox="0 0 26 27" class="c-post-meta__icon" alt="Share to LinkedIn" title="Share to LinkedIn"><defs><path d="M0 1.207h6.199v6.092H0z"></path></defs><g fill-rule="evenodd"><path d="M.61 26.825h5.513V9.206H.61z"></path><g transform="translate(.286 -.5)"><path d="M3.08 7.299h-.034C1.196 7.299 0 5.943 0 4.254c0-1.728 1.234-3.047 3.116-3.047 1.887 0 3.049 1.319 3.083 3.047 0 1.689-1.196 3.045-3.118 3.045"></path>
    </g><path d="M26 26.825h-5.513v-9.427c0-2.367-.797-3.986-2.793-3.986-1.52 0-2.43 1.095-2.828 2.145-.147.377-.182.898-.182 1.428v9.84h-5.51s.07-15.968 0-17.62h5.51v2.496c.735-1.203 2.043-2.909 4.97-2.909 3.625 0 6.346 2.518 6.346 7.93v10.103z"></path></g></svg>