<svg xmlns="http://www.w3.org/2000/svg" viewBox="0 0 24 24" role="presentation" aria-hidden="true" focusable="false" style="height: 32px; width: 32px; display: block; fill: rgb(72, 72, 72);"><path d="m24 16.61c0-2.68-1.52-5.09-4.04-6.42a7.2 7.2 0 0 0 .04-.69c0-4.69-4.49-8.5-10-8.5s-10 3.81-10 8.5a7.52 7.52 0 0 0 1.17 3.99c-.33.99-.86 2.78-1.15 3.88a.5.5 0 0 0 .6.61c.72-.17 1.62-.51 2.5-.84.52-.19 1.01-.38 1.42-.51.79.44 1.64.78 2.53 1 .58 3.66 4.12 6.37 8.42 6.37 1.72 0 3.27-.39 4.62-1.16.33.11.73.26 1.15.42.74.28 1.51.57 2.12.72a.5.5 0 0 0 .6-.61 63.17 63.17 0 0 0 -.96-3.32 6.63 6.63 0 0 0 .98-3.44zm-19.41-1.01a.5.5 0 0 0 -.14.02c-.46.14-1.06.36-1.69.59-.53.2-1.06.4-1.55.56.32-1.12.73-2.48.97-3.18a.5.5 0 0 0 -.06-.44c-.73-1.11-1.12-2.37-1.12-3.65 0-4.14 4.04-7.5 9-7.5s9 3.36 9 7.5c0 .47-.06.92-.16 1.36-.01.06-.02.11-.03.17a6.71 6.71 0 0 1 -.89 2.03c-.01.02-.03.04-.04.06-.12.18-.25.36-.38.53-.06.07-.12.14-.18.21-.1.11-.19.22-.29.33a8.14 8.14 0 0 1 -.32.31c-.07.06-.13.12-.2.18-.15.13-.31.25-.47.38l-.08.06c-1.59 1.16-3.68 1.86-5.95 1.86-.59 0-1.11-.03-1.59-.09-1.3-.18-2.5-.58-3.57-1.21a.5.5 0 0 0 -.26-.07zm17.41 4.55c.2.58.52 1.67.78 2.61-.37-.13-.78-.28-1.17-.43a23.77 23.77 0 0 0 -1.42-.51.49.49 0 0 0 -.4.05c-1.24.75-2.69 1.13-4.3 1.13-3.59 0-6.68-2.21-7.37-5.14.06.01.12.01.18.02.22.03.45.05.68.07l.1.01c.31.02.61.05.93.05 2.7 0 5.15-.92 6.95-2.4l.02-.02c.13-.1.24-.22.36-.32.1-.09.19-.18.29-.27.08-.08.16-.17.24-.25a8.71 8.71 0 0 0 .51-.6 8.27 8.27 0 0 0 .36-.5c.03-.05.07-.1.1-.16.12-.2.24-.4.34-.6l.06-.11a7.57 7.57 0 0 0 .32-.74l.01-.02a7.37 7.37 0 0 0 .25-.8c1.97 1.15 3.18 3.17 3.18 5.39a5.67 5.67 0 0 1 -.94 3.1.5.5 0 0 0 -.06.44zm-16-10.15a1 1 0 1 1 -2 0 1 1 0 0 1 2 0zm3 0a1 1 0 1 1 2 0 1 1 0 0 1 -2 0zm5 0a1 1 0 1 1 2 0 1 1 0 0 1 -2 0z" fill-rule="evenodd"></path></svg>