<svg xmlns="http://www.w3.org/2000/svg" viewBox="0 0 24 24" role="presentation" aria-hidden="true" focusable="false" style="height: 36px; width: 36px; display: block; fill: rgb(65, 198, 188);"><circle cx="10" cy="14" r="2.25"></circle><path d="M21.5 3H18V1.5a.5.5 0 0 0-1 0V3h-7V1.5a.5.5 0 0 0-1 0V3H5.5a.5.5 0 0 0-.5.5v3.56H1.44A.44.44 0 0 0 1 7.5v15a.44.44 0 0 0 .44.44H17.5a.44.44 0 0 0 .44-.44V19h3.56a.5.5 0 0 0 .5-.5v-15a.5.5 0 0 0-.5-.5zM9 4v1a.5.5 0 0 0 1 0V4h7v1a.5.5 0 0 0 1 0V4h3v3.06H6V4zm8.06 18.06H1.88V7.94H5V18.5a.5.5 0 0 0 .5.5h11.56zM6 18V7.94h15V18z" fill="#484848"></path></svg>