<svg xmlns="http://www.w3.org/2000/svg" xmlns:xlink= "http://www.w3.org/1999/xlink" viewBox="0 0 100 100" version="1.1"> <g id="How-it-Works" stroke="none" stroke-width="1" fill="none" fill-rule="evenodd"> <g id="Artboard" transform="translate(-1457.000000, -1900.000000)" fill="currentColor" fill-rule="nonzero"> <g id="Journey-Steps" transform="translate(242.000000, 1885.000000)"> <g id="Bar-Chart-Icon-M" transform="translate(1215.000000, 15.000000)"> <g id="icon_testing_chart_m"> <path d="M70,86 L78,86 L78,46 L94,46 L94,86 L100,86 L100,90 L0,90 L0,86 L6,86 L6,60 L22,60 L22,86 L30,86 L30,70 L46,70 L46,86 L54,86 L54,10 L70,10 L70,86 Z M34,74 L34,86 L42,86 L42,74 L34,74 Z M10,64 L10,86 L18,86 L18,64 L10,64 Z M82,50 L82,86 L90,86 L90,50 L82,50 Z M58,14 L58,86 L66,86 L66,14 L58,14 Z" id="Combined-Shape" fill="#4D6DC3"></path> </g> </g> </g> </g> </g> </svg>