<svg xmlns="http://www.w3.org/2000/svg" viewBox="0 0 31 27" fill="#a8a9b0" alt="Share to Twitter" title="Share to Twitter"><path fill-rule="evenodd" d="M21.36.226c-3.497 0-6.326 2.907-6.326 6.52 0 .482.069.98.155 1.48-5.16-.258-9.875-2.804-13.029-6.813-.566 1.015-.874 2.099-.874 3.286a6.543 6.543 0 0 0 2.828 5.42 5.948 5.948 0 0 1-2.863-.827v.086c0 3.149 2.16 5.764 5.075 6.4a6.774 6.774 0 0 1-1.663.207c-.377 0-.772-.034-1.2-.086.806 2.598 3.171 4.456 5.914 4.507-2.297 1.859-4.92 2.788-7.851 2.788-.566 0-1.08-.018-1.526-.086 2.931 1.96 6.171 2.924 9.703 2.924 2.263 0 4.354-.361 6.326-1.1 3.942-1.463 6.651-3.975 8.674-7.192 2.023-3.2 3-6.744 3-10.237 0-.378 0-.67-.017-.843a13.793 13.793 0 0 0 3.171-3.372 12.14 12.14 0 0 1-3.634 1.015c1.371-.86 2.28-2.047 2.777-3.595a12.226 12.226 0 0 1-4.011 1.582C24.737.914 23.177.226 21.36.226z"></path></svg>